<?xml version="1.0" encoding="UTF-8" standalone="no"?>
<!DOCTYPE svg PUBLIC "-//W3C//DTD SVG 1.1//EN" "http://www.w3.org/Graphics/SVG/1.1/DTD/svg11.dtd">
<svg version="1.1" xmlns="http://www.w3.org/2000/svg" xmlns:xlink="http://www.w3.org/1999/xlink" preserveAspectRatio="xMidYMid meet" viewBox="0 0 500 500" width="500" height="500"><defs><path d="M0.12 79.42L0.26 78.02L0.46 76.63L0.71 75.27L1.01 73.92L1.37 72.59L1.77 71.28L2.23 70L2.73 68.74L3.28 67.5L3.88 66.29L4.52 65.11L5.21 63.96L5.94 62.83L6.71 61.74L7.52 60.68L8.37 59.64L9.26 58.65L10.18 57.69L11.15 56.76L12.14 55.87L13.17 55.02L14.24 54.21L15.33 53.44L16.45 52.71L17.61 52.03L18.79 51.38L20 50.79L21.24 50.24L22.5 49.73L23.78 49.28L25.09 48.87L26.41 48.51L27.76 48.21L29.13 47.96L30.52 47.76L31.92 47.62L33.34 47.53L34.77 47.5L465.23 47.5L466.66 47.53L468.08 47.62L469.48 47.76L470.87 47.96L472.24 48.21L473.59 48.51L474.91 48.87L476.22 49.28L477.5 49.73L478.76 50.24L480 50.79L481.21 51.38L482.39 52.03L483.55 52.71L484.67 53.44L485.76 54.21L486.83 55.02L487.86 55.87L488.85 56.76L489.82 57.69L490.74 58.65L491.63 59.64L492.48 60.68L493.29 61.74L494.06 62.83L494.79 63.96L495.48 65.11L496.12 66.29L496.72 67.5L497.27 68.74L497.77 70L498.23 71.28L498.63 72.59L498.99 73.92L499.29 75.27L499.54 76.63L499.74 78.02L499.88 79.42L499.97 80.84L500 82.27L500 417.73L499.97 419.17L499.88 420.58L499.74 421.99L499.54 423.37L499.29 424.74L498.99 426.09L498.63 427.42L498.23 428.72L497.77 430.01L497.27 431.27L496.72 432.5L496.12 433.71L495.48 434.89L494.79 436.05L494.06 437.17L493.29 438.27L492.48 439.33L491.63 440.36L490.74 441.36L489.82 442.32L488.85 443.24L487.86 444.13L486.83 444.98L485.76 445.79L484.67 446.56L483.55 447.29L482.39 447.98L481.21 448.62L480 449.22L478.76 449.77L477.5 450.27L476.22 450.73L474.91 451.14L473.59 451.49L472.24 451.8L470.87 452.05L469.48 452.25L468.08 452.39L466.66 452.47L465.23 452.5L34.77 452.5L33.34 452.47L31.92 452.39L30.52 452.25L29.13 452.05L27.76 451.8L26.41 451.49L25.09 451.14L23.78 450.73L22.5 450.27L21.24 449.77L20 449.22L18.79 448.62L17.61 447.98L16.45 447.29L15.33 446.56L14.24 445.79L13.17 444.98L12.14 444.13L11.15 443.24L10.18 442.32L9.26 441.36L8.37 440.36L7.52 439.33L6.71 438.27L5.94 437.17L5.21 436.05L4.52 434.89L3.88 433.71L3.28 432.5L2.73 431.27L2.23 430.01L1.77 428.72L1.37 427.42L1.01 426.09L0.71 424.74L0.46 423.37L0.26 421.99L0.12 420.58L0.03 419.17L0 417.73L0 82.27L0.03 80.84L0.12 79.42Z" id="khKzVlRmd"></path><path d="M468.08 47.62L469.48 47.76L470.87 47.96L472.24 48.21L473.59 48.51L474.91 48.87L476.22 49.28L477.5 49.73L478.76 50.24L480 50.79L481.21 51.38L482.39 52.03L483.55 52.71L484.67 53.44L485.76 54.21L486.83 55.02L487.86 55.87L488.85 56.76L489.82 57.69L490.74 58.65L491.63 59.64L492.48 60.68L493.29 61.74L494.06 62.83L494.79 63.96L495.48 65.11L496.12 66.29L496.72 67.5L497.27 68.74L497.77 70L498.23 71.28L498.63 72.59L498.99 73.92L499.29 75.27L499.54 76.63L499.74 78.02L499.88 79.42L499.97 80.84L500 82.27L500 250L0 250L0 82.27L0.03 80.84L0.12 79.42L0.26 78.02L0.46 76.63L0.71 75.27L1.01 73.92L1.37 72.59L1.77 71.28L2.23 70L2.73 68.74L3.28 67.5L3.88 66.29L4.52 65.11L5.21 63.96L5.94 62.83L6.71 61.74L7.52 60.68L8.37 59.64L9.26 58.65L10.18 57.69L11.15 56.76L12.14 55.87L13.17 55.02L14.24 54.21L15.33 53.44L16.45 52.71L17.61 52.03L18.79 51.38L20 50.79L21.24 50.24L22.5 49.73L23.78 49.28L25.09 48.87L26.41 48.51L27.76 48.21L29.13 47.96L30.52 47.76L31.92 47.62L33.34 47.53L34.77 47.5L465.23 47.5L466.66 47.53L468.08 47.62Z" id="c3MQ7V2AXT"></path><path d="M436.19 368.21L437.11 368.32L438.02 368.46L438.92 368.64L439.81 368.87L440.67 369.13L441.53 369.42L442.36 369.75L443.18 370.12L443.97 370.52L444.75 370.95L445.51 371.42L446.24 371.91L446.95 372.44L447.64 373L448.3 373.58L448.94 374.19L449.55 374.83L450.13 375.49L450.69 376.18L451.22 376.89L451.71 377.62L452.18 378.38L452.61 379.16L453.01 379.95L453.38 380.77L453.71 381.6L454 382.46L454.26 383.32L454.49 384.21L454.67 385.11L454.81 386.02L454.92 386.94L454.98 387.88L455 388.83L455 392.43L454.98 393.37L454.92 394.31L454.81 395.24L454.67 396.15L454.49 397.05L454.26 397.93L454 398.8L453.71 399.65L453.38 400.48L453.01 401.3L452.61 402.1L452.18 402.87L451.71 403.63L451.22 404.36L450.69 405.08L450.13 405.76L449.55 406.43L448.94 407.06L448.3 407.68L447.64 408.26L446.95 408.81L446.24 409.34L445.51 409.84L444.75 410.3L443.97 410.73L443.18 411.13L442.36 411.5L441.53 411.83L440.67 412.13L439.81 412.39L438.92 412.61L438.02 412.79L437.11 412.94L436.19 413.04L435.25 413.11L434.3 413.13L412.7 413.13L411.75 413.11L410.82 413.04L409.89 412.94L408.98 412.79L408.08 412.61L407.2 412.39L406.33 412.13L405.48 411.83L404.65 411.5L403.83 411.13L403.03 410.73L402.25 410.3L401.5 409.84L400.76 409.34L400.05 408.81L399.37 408.26L398.7 407.68L398.07 407.06L397.45 406.43L396.87 405.76L396.32 405.08L395.79 404.36L395.29 403.63L394.83 402.87L394.4 402.1L394 401.3L393.63 400.48L393.3 399.65L393 398.8L392.74 397.93L392.52 397.05L392.34 396.15L392.19 395.24L392.09 394.31L392.02 393.37L392 392.43L392 388.83L392.02 387.88L392.09 386.94L392.19 386.02L392.34 385.11L392.52 384.21L392.74 383.32L393 382.46L393.3 381.6L393.63 380.77L394 379.95L394.4 379.16L394.83 378.38L395.29 377.62L395.79 376.89L396.32 376.18L396.87 375.49L397.45 374.83L398.07 374.19L398.7 373.58L399.37 373L400.05 372.44L400.76 371.91L401.5 371.42L402.25 370.95L403.03 370.52L403.83 370.12L404.65 369.75L405.48 369.42L406.33 369.13L407.2 368.87L408.08 368.64L408.98 368.46L409.89 368.32L410.82 368.21L411.75 368.15L412.7 368.13L434.3 368.13L435.25 368.15L436.19 368.21ZM89.18 368.21L90.11 368.32L91.02 368.46L91.92 368.64L92.8 368.87L93.67 369.13L94.52 369.42L95.35 369.75L96.17 370.12L96.97 370.52L97.75 370.95L98.5 371.42L99.24 371.91L99.95 372.44L100.63 373L101.3 373.58L101.93 374.19L102.55 374.83L103.13 375.49L103.68 376.18L104.21 376.89L104.71 377.62L105.17 378.38L105.6 379.16L106 379.95L106.37 380.77L106.7 381.6L107 382.46L107.26 383.32L107.48 384.21L107.66 385.11L107.81 386.02L107.91 386.94L107.98 387.88L108 388.83L108 392.43L107.98 393.37L107.91 394.31L107.81 395.24L107.66 396.15L107.48 397.05L107.26 397.93L107 398.8L106.7 399.65L106.37 400.48L106 401.3L105.6 402.1L105.17 402.87L104.71 403.63L104.21 404.36L103.68 405.08L103.13 405.76L102.55 406.43L101.93 407.06L101.3 407.68L100.63 408.26L99.95 408.81L99.24 409.34L98.5 409.84L97.75 410.3L96.97 410.73L96.17 411.13L95.35 411.5L94.52 411.83L93.67 412.13L92.8 412.39L91.92 412.61L91.02 412.79L90.11 412.94L89.18 413.04L88.25 413.11L87.3 413.13L65.7 413.13L64.75 413.11L63.81 413.04L62.89 412.94L61.98 412.79L61.08 412.61L60.19 412.39L59.33 412.13L58.47 411.83L57.64 411.5L56.82 411.13L56.03 410.73L55.25 410.3L54.49 409.84L53.76 409.34L53.05 408.81L52.36 408.26L51.7 407.68L51.06 407.06L50.45 406.43L49.87 405.76L49.31 405.08L48.78 404.36L48.29 403.63L47.82 402.87L47.39 402.1L46.99 401.3L46.62 400.48L46.29 399.65L46 398.8L45.74 397.93L45.51 397.05L45.33 396.15L45.19 395.24L45.08 394.31L45.02 393.37L45 392.43L45 388.83L45.02 387.88L45.08 386.94L45.19 386.02L45.33 385.11L45.51 384.21L45.74 383.32L46 382.46L46.29 381.6L46.62 380.77L46.99 379.95L47.39 379.16L47.82 378.38L48.29 377.62L48.78 376.89L49.31 376.18L49.87 375.49L50.45 374.83L51.06 374.19L51.7 373.58L52.36 373L53.05 372.44L53.76 371.91L54.49 371.42L55.25 370.95L56.03 370.52L56.82 370.12L57.64 369.75L58.47 369.42L59.33 369.13L60.19 368.87L61.08 368.64L61.98 368.46L62.89 368.32L63.81 368.21L64.75 368.15L65.7 368.13L87.3 368.13L88.25 368.15L89.18 368.21ZM89.18 278.21L90.11 278.32L91.02 278.46L91.92 278.64L92.8 278.87L93.67 279.13L94.52 279.42L95.35 279.75L96.17 280.12L96.97 280.52L97.75 280.95L98.5 281.42L99.24 281.91L99.95 282.44L100.63 283L101.3 283.58L101.93 284.19L102.55 284.83L103.13 285.49L103.68 286.18L104.21 286.89L104.71 287.62L105.17 288.38L105.6 289.16L106 289.95L106.37 290.77L106.7 291.6L107 292.46L107.26 293.32L107.48 294.21L107.66 295.11L107.81 296.02L107.91 296.94L107.98 297.88L108 298.83L108 302.43L107.98 303.37L107.91 304.31L107.81 305.24L107.66 306.15L107.48 307.05L107.26 307.93L107 308.8L106.7 309.65L106.37 310.48L106 311.3L105.6 312.1L105.17 312.87L104.71 313.63L104.21 314.36L103.68 315.08L103.13 315.76L102.55 316.43L101.93 317.06L101.3 317.68L100.63 318.26L99.95 318.81L99.24 319.34L98.5 319.84L97.75 320.3L96.97 320.73L96.17 321.13L95.35 321.5L94.52 321.83L93.67 322.13L92.8 322.39L91.92 322.61L91.02 322.79L90.11 322.94L89.18 323.04L88.25 323.11L87.3 323.13L65.7 323.13L64.75 323.11L63.81 323.04L62.89 322.94L61.98 322.79L61.08 322.61L60.19 322.39L59.33 322.13L58.47 321.83L57.64 321.5L56.82 321.13L56.03 320.73L55.25 320.3L54.49 319.84L53.76 319.34L53.05 318.81L52.36 318.26L51.7 317.68L51.06 317.06L50.45 316.43L49.87 315.76L49.31 315.08L48.78 314.36L48.29 313.63L47.82 312.87L47.39 312.1L46.99 311.3L46.62 310.48L46.29 309.65L46 308.8L45.74 307.93L45.51 307.05L45.33 306.15L45.19 305.24L45.08 304.31L45.02 303.37L45 302.43L45 298.83L45.02 297.88L45.08 296.94L45.19 296.02L45.33 295.11L45.51 294.21L45.74 293.32L46 292.46L46.29 291.6L46.62 290.77L46.99 289.95L47.39 289.16L47.82 288.38L48.29 287.62L48.78 286.89L49.31 286.18L49.87 285.49L50.45 284.83L51.06 284.19L51.7 283.58L52.36 283L53.05 282.44L53.76 281.91L54.49 281.42L55.25 280.95L56.03 280.52L56.82 280.12L57.64 279.75L58.47 279.42L59.33 279.13L60.19 278.87L61.08 278.64L61.98 278.46L62.89 278.32L63.81 278.21L64.75 278.15L65.7 278.13L87.3 278.13L88.25 278.15L89.18 278.21ZM436.19 278.21L437.11 278.32L438.02 278.46L438.92 278.64L439.81 278.87L440.67 279.13L441.53 279.42L442.36 279.75L443.18 280.12L443.97 280.52L444.75 280.95L445.51 281.42L446.24 281.91L446.95 282.44L447.64 283L448.3 283.58L448.94 284.19L449.55 284.83L450.13 285.49L450.69 286.18L451.22 286.89L451.71 287.62L452.18 288.38L452.61 289.16L453.01 289.95L453.38 290.77L453.71 291.6L454 292.46L454.26 293.32L454.49 294.21L454.67 295.11L454.81 296.02L454.92 296.94L454.98 297.88L455 298.83L455 302.43L454.98 303.37L454.92 304.31L454.81 305.24L454.67 306.15L454.49 307.05L454.26 307.93L454 308.8L453.71 309.65L453.38 310.48L453.01 311.3L452.61 312.1L452.18 312.87L451.71 313.63L451.22 314.36L450.69 315.08L450.13 315.76L449.55 316.43L448.94 317.06L448.3 317.68L447.64 318.26L446.95 318.81L446.24 319.34L445.51 319.84L444.75 320.3L443.97 320.73L443.18 321.13L442.36 321.5L441.53 321.83L440.67 322.13L439.81 322.39L438.92 322.61L438.02 322.79L437.11 322.94L436.19 323.04L435.25 323.11L434.3 323.13L412.7 323.13L411.75 323.11L410.82 323.04L409.89 322.94L408.98 322.79L408.08 322.61L407.2 322.39L406.33 322.13L405.48 321.83L404.65 321.5L403.83 321.13L403.03 320.73L402.25 320.3L401.5 319.84L400.76 319.34L400.05 318.81L399.37 318.26L398.7 317.68L398.07 317.06L397.45 316.43L396.87 315.76L396.32 315.08L395.79 314.36L395.29 313.63L394.83 312.87L394.4 312.1L394 311.3L393.63 310.48L393.3 309.65L393 308.8L392.74 307.93L392.52 307.05L392.34 306.15L392.19 305.24L392.09 304.31L392.02 303.37L392 302.43L392 298.83L392.02 297.88L392.09 296.94L392.19 296.02L392.34 295.11L392.52 294.21L392.74 293.32L393 292.46L393.3 291.6L393.63 290.77L394 289.95L394.4 289.16L394.83 288.38L395.29 287.62L395.79 286.89L396.32 286.18L396.87 285.49L397.45 284.83L398.07 284.19L398.7 283.58L399.37 283L400.05 282.44L400.76 281.91L401.5 281.42L402.25 280.95L403.03 280.52L403.83 280.12L404.65 279.75L405.48 279.42L406.33 279.13L407.2 278.87L408.08 278.64L408.98 278.46L409.89 278.32L410.82 278.21L411.75 278.15L412.7 278.13L434.3 278.13L435.25 278.15L436.19 278.21ZM436.19 176.96L437.11 177.07L438.02 177.21L438.92 177.4L439.81 177.62L440.67 177.88L441.53 178.17L442.36 178.51L443.18 178.87L443.97 179.27L444.75 179.7L445.51 180.17L446.24 180.67L446.95 181.19L447.64 181.75L448.3 182.33L448.94 182.94L449.55 183.58L450.13 184.24L450.69 184.93L451.22 185.64L451.71 186.37L452.18 187.13L452.61 187.91L453.01 188.7L453.38 189.52L453.71 190.36L454 191.21L454.26 192.08L454.49 192.96L454.67 193.86L454.81 194.77L454.92 195.69L454.98 196.63L455 197.58L455 201.18L454.98 202.13L454.92 203.06L454.81 203.99L454.67 204.9L454.49 205.8L454.26 206.68L454 207.55L453.71 208.4L453.38 209.24L453.01 210.05L452.61 210.85L452.18 211.63L451.71 212.38L451.22 213.12L450.69 213.83L450.13 214.52L449.55 215.18L448.94 215.82L448.3 216.43L447.64 217.01L446.95 217.57L446.24 218.09L445.51 218.59L444.75 219.05L443.97 219.49L443.18 219.89L442.36 220.25L441.53 220.58L440.67 220.88L439.81 221.14L438.92 221.36L438.02 221.54L437.11 221.69L436.19 221.79L435.25 221.86L434.3 221.88L412.7 221.88L411.75 221.86L410.82 221.79L409.89 221.69L408.98 221.54L408.08 221.36L407.2 221.14L406.33 220.88L405.48 220.58L404.65 220.25L403.83 219.89L403.03 219.49L402.25 219.05L401.5 218.59L400.76 218.09L400.05 217.57L399.37 217.01L398.7 216.43L398.07 215.82L397.45 215.18L396.87 214.52L396.32 213.83L395.79 213.12L395.29 212.38L394.83 211.63L394.4 210.85L394 210.05L393.63 209.24L393.3 208.4L393 207.55L392.74 206.68L392.52 205.8L392.34 204.9L392.19 203.99L392.09 203.06L392.02 202.13L392 201.18L392 197.58L392.02 196.63L392.09 195.69L392.19 194.77L392.34 193.86L392.52 192.96L392.74 192.08L393 191.21L393.3 190.36L393.63 189.52L394 188.7L394.4 187.91L394.83 187.13L395.29 186.37L395.79 185.64L396.32 184.93L396.87 184.24L397.45 183.58L398.07 182.94L398.7 182.33L399.37 181.75L400.05 181.19L400.76 180.67L401.5 180.17L402.25 179.7L403.03 179.27L403.83 178.87L404.65 178.51L405.48 178.17L406.33 177.88L407.2 177.62L408.08 177.4L408.98 177.21L409.89 177.07L410.82 176.96L411.75 176.9L412.7 176.88L434.3 176.88L435.25 176.9L436.19 176.96ZM89.18 176.96L90.11 177.07L91.02 177.21L91.92 177.4L92.8 177.62L93.67 177.88L94.52 178.17L95.35 178.51L96.17 178.87L96.97 179.27L97.75 179.7L98.5 180.17L99.24 180.67L99.95 181.19L100.63 181.75L101.3 182.33L101.93 182.94L102.55 183.58L103.13 184.24L103.68 184.93L104.21 185.64L104.71 186.37L105.17 187.13L105.6 187.91L106 188.7L106.37 189.52L106.7 190.36L107 191.21L107.26 192.08L107.48 192.96L107.66 193.86L107.81 194.77L107.91 195.69L107.98 196.63L108 197.58L108 201.18L107.98 202.13L107.91 203.06L107.81 203.99L107.66 204.9L107.48 205.8L107.26 206.68L107 207.55L106.7 208.4L106.37 209.24L106 210.05L105.6 210.85L105.17 211.63L104.71 212.38L104.21 213.12L103.68 213.83L103.13 214.52L102.55 215.18L101.93 215.82L101.3 216.43L100.63 217.01L99.95 217.57L99.24 218.09L98.5 218.59L97.75 219.05L96.97 219.49L96.17 219.89L95.35 220.25L94.52 220.58L93.67 220.88L92.8 221.14L91.92 221.36L91.02 221.54L90.11 221.69L89.18 221.79L88.25 221.86L87.3 221.88L65.7 221.88L64.75 221.86L63.81 221.79L62.89 221.69L61.98 221.54L61.08 221.36L60.19 221.14L59.33 220.88L58.47 220.58L57.64 220.25L56.82 219.89L56.03 219.49L55.25 219.05L54.49 218.59L53.76 218.09L53.05 217.57L52.36 217.01L51.7 216.43L51.06 215.82L50.45 215.18L49.87 214.52L49.31 213.83L48.78 213.12L48.29 212.38L47.82 211.63L47.39 210.85L46.99 210.05L46.62 209.24L46.29 208.4L46 207.55L45.74 206.68L45.51 205.8L45.33 204.9L45.19 203.99L45.08 203.06L45.02 202.13L45 201.18L45 197.58L45.02 196.63L45.08 195.69L45.19 194.77L45.33 193.86L45.51 192.96L45.74 192.08L46 191.21L46.29 190.36L46.62 189.52L46.99 188.7L47.39 187.91L47.82 187.13L48.29 186.37L48.78 185.64L49.31 184.93L49.87 184.24L50.45 183.58L51.06 182.94L51.7 182.33L52.36 181.75L53.05 181.19L53.76 180.67L54.49 180.17L55.25 179.7L56.03 179.27L56.82 178.87L57.64 178.51L58.47 178.17L59.33 177.88L60.19 177.62L61.08 177.4L61.98 177.21L62.89 177.07L63.81 176.96L64.75 176.9L65.7 176.88L87.3 176.88L88.25 176.9L89.18 176.96ZM89.18 86.96L90.11 87.07L91.02 87.21L91.92 87.4L92.8 87.62L93.67 87.88L94.52 88.17L95.35 88.51L96.17 88.87L96.97 89.27L97.75 89.7L98.5 90.17L99.24 90.67L99.95 91.19L100.63 91.75L101.3 92.33L101.93 92.94L102.55 93.58L103.13 94.24L103.68 94.93L104.21 95.64L104.71 96.37L105.17 97.13L105.6 97.91L106 98.7L106.37 99.52L106.7 100.36L107 101.21L107.26 102.08L107.48 102.96L107.66 103.86L107.81 104.77L107.91 105.69L107.98 106.63L108 107.58L108 111.18L107.98 112.13L107.91 113.06L107.81 113.99L107.66 114.9L107.48 115.8L107.26 116.68L107 117.55L106.7 118.4L106.37 119.24L106 120.05L105.6 120.85L105.17 121.63L104.71 122.38L104.21 123.12L103.68 123.83L103.13 124.52L102.55 125.18L101.93 125.82L101.3 126.43L100.63 127.01L99.95 127.57L99.24 128.09L98.5 128.59L97.75 129.05L96.97 129.49L96.17 129.89L95.35 130.25L94.52 130.58L93.67 130.88L92.8 131.14L91.92 131.36L91.02 131.54L90.11 131.69L89.18 131.79L88.25 131.86L87.3 131.88L65.7 131.88L64.75 131.86L63.81 131.79L62.89 131.69L61.98 131.54L61.08 131.36L60.19 131.14L59.33 130.88L58.47 130.58L57.64 130.25L56.82 129.89L56.03 129.49L55.25 129.05L54.49 128.59L53.76 128.09L53.05 127.57L52.36 127.01L51.7 126.43L51.06 125.82L50.45 125.18L49.87 124.52L49.31 123.83L48.78 123.12L48.29 122.38L47.82 121.63L47.39 120.85L46.99 120.05L46.62 119.24L46.29 118.4L46 117.55L45.74 116.68L45.51 115.8L45.33 114.9L45.19 113.99L45.08 113.06L45.02 112.13L45 111.18L45 107.58L45.02 106.63L45.08 105.69L45.19 104.77L45.33 103.86L45.51 102.96L45.74 102.08L46 101.21L46.29 100.36L46.62 99.52L46.99 98.7L47.39 97.91L47.82 97.13L48.29 96.37L48.78 95.64L49.31 94.93L49.87 94.24L50.45 93.58L51.06 92.94L51.7 92.33L52.36 91.75L53.05 91.19L53.76 90.67L54.49 90.17L55.25 89.7L56.03 89.27L56.82 88.87L57.64 88.51L58.47 88.17L59.33 87.88L60.19 87.62L61.08 87.4L61.98 87.21L62.89 87.07L63.81 86.96L64.75 86.9L65.7 86.88L87.3 86.88L88.25 86.9L89.18 86.96ZM436.19 86.96L437.11 87.07L438.02 87.21L438.92 87.4L439.81 87.62L440.67 87.88L441.53 88.17L442.36 88.51L443.18 88.87L443.97 89.27L444.75 89.7L445.51 90.17L446.24 90.67L446.95 91.19L447.64 91.75L448.3 92.33L448.94 92.94L449.55 93.58L450.13 94.24L450.69 94.93L451.22 95.64L451.71 96.37L452.18 97.13L452.61 97.91L453.01 98.7L453.38 99.52L453.71 100.36L454 101.21L454.26 102.08L454.49 102.96L454.67 103.86L454.81 104.77L454.92 105.69L454.98 106.63L455 107.58L455 111.18L454.98 112.13L454.92 113.06L454.81 113.99L454.67 114.9L454.49 115.8L454.26 116.68L454 117.55L453.71 118.4L453.38 119.24L453.01 120.05L452.61 120.85L452.18 121.63L451.71 122.38L451.22 123.12L450.69 123.83L450.13 124.52L449.55 125.18L448.94 125.82L448.3 126.43L447.64 127.01L446.95 127.57L446.24 128.09L445.51 128.59L444.75 129.05L443.97 129.49L443.18 129.89L442.36 130.25L441.53 130.58L440.67 130.88L439.81 131.14L438.92 131.36L438.02 131.54L437.11 131.69L436.19 131.79L435.25 131.86L434.3 131.88L412.7 131.88L411.75 131.86L410.82 131.79L409.89 131.69L408.98 131.54L408.08 131.36L407.2 131.14L406.33 130.88L405.48 130.58L404.65 130.25L403.83 129.89L403.03 129.49L402.25 129.05L401.5 128.59L400.76 128.09L400.05 127.57L399.37 127.01L398.7 126.43L398.07 125.82L397.45 125.18L396.87 124.52L396.32 123.83L395.79 123.12L395.29 122.38L394.83 121.63L394.4 120.85L394 120.05L393.63 119.24L393.3 118.4L393 117.55L392.74 116.68L392.52 115.8L392.34 114.9L392.19 113.99L392.09 113.06L392.02 112.13L392 111.18L392 107.58L392.02 106.63L392.09 105.69L392.19 104.77L392.34 103.86L392.52 102.96L392.74 102.08L393 101.21L393.3 100.36L393.63 99.52L394 98.7L394.4 97.91L394.83 97.13L395.29 96.37L395.79 95.64L396.32 94.93L396.87 94.24L397.45 93.58L398.07 92.94L398.7 92.33L399.37 91.75L400.05 91.19L400.76 90.67L401.5 90.17L402.25 89.7L403.03 89.27L403.83 88.87L404.65 88.51L405.48 88.17L406.33 87.88L407.2 87.62L408.08 87.4L408.98 87.21L409.89 87.07L410.82 86.96L411.75 86.9L412.7 86.88L434.3 86.88L435.25 86.9L436.19 86.96Z" id="a1up9Gp0LB"></path></defs><g><g><g><use xlink:href="#khKzVlRmd" opacity="1" fill="#4791db" fill-opacity="1"></use></g><g><use xlink:href="#c3MQ7V2AXT" opacity="0.25" fill="#000000" fill-opacity="1"></use></g><g><use xlink:href="#a1up9Gp0LB" opacity="1" fill="#ffffff" fill-opacity="1"></use></g></g></g></svg>